<?xml version="1.0" encoding="utf-8"?>
<!-- Generator: Adobe Illustrator 24.1.0, SVG Export Plug-In . SVG Version: 6.00 Build 0)  -->
<svg version="1.1" id="Layer_1" xmlns="http://www.w3.org/2000/svg" xmlns:xlink="http://www.w3.org/1999/xlink" x="0px" y="0px"
	 viewBox="0 0 152.8 34.9" style="enable-background:new 0 0 152.8 34.9;" xml:space="preserve">
<style type="text/css">
	.st0{fill:#FFFFFF;}
</style>
<path class="st0" d="M-131.7,14.3c-8.6,0-15.7,7-15.8,15.6c0,8.5,6.9,15.5,15.5,15.5c8.7,0,15.6-6.8,15.6-15.5
	C-116.4,21.3-123.2,14.3-131.7,14.3z M-143.3,27c1.4-6.8,9.8-11.1,16-7.8c-4.3-0.2-7.7,1.1-10.2,4.3c-2.7,3.3-2.5,8.2,0.4,10.9
	c1.7,1.6,3.7,1.9,5.9,1.8c-1.5,1-3.1,1.4-4.9,1.2C-141.4,36.6-144.4,32.3-143.3,27z M-131.8,27c1.6,0,2.7,1.2,2.7,2.8
	s-1.3,2.9-2.9,2.9c-1.6,0-2.8-1.2-2.8-2.9C-134.7,28.2-133.5,27-131.8,27z M-135.8,41.1c-0.3-0.1-0.7-0.2-0.9-0.7c1,0,1.9,0,2.8,0
	c4.3-0.3,8.3-3.6,9.3-7.8c1.2-4.9-2.2-8.9-7.8-9.1c5-3.1,11.4,0.2,12.1,6C-119.4,37.4-128.5,44.1-135.8,41.1z"/>
</svg>
