<?xml version="1.0" encoding="utf-8"?>
<!-- Generator: Adobe Illustrator 24.1.0, SVG Export Plug-In . SVG Version: 6.00 Build 0)  -->
<svg version="1.1" id="Capa_1" xmlns="http://www.w3.org/2000/svg" xmlns:xlink="http://www.w3.org/1999/xlink" x="0px" y="0px"
	 viewBox="0 0 471.8 471.8" style="enable-background:new 0 0 471.8 471.8;" xml:space="preserve">
<style type="text/css">
	.st0{fill:#FFFFFF;}
</style>
<g>
	<path class="st0" d="M319.1,27.2h-36.5V0h-95.3v27.2h-34.6c-22.5,0-40.8,18.3-40.8,40.8V431c0,22.5,18.3,40.8,40.8,40.8h166.4
		c22.5,0,40.8-18.3,40.8-40.8V68.1C359.9,45.5,341.6,27.2,319.1,27.2z M332.7,431c0,7.5-6.1,13.6-13.6,13.6H152.7
		c-7.5,0-13.6-6.1-13.6-13.6v-363c0-7.5,6.1-13.6,13.6-13.6h166.4c7.5,0,13.6,6.1,13.6,13.6V431L332.7,431z M317.9,428.5H154v-59.7
		h163.9V428.5z"/>
</g>
</svg>
