<?xml version="1.0" encoding="utf-8"?>
<!-- Generator: Adobe Illustrator 24.1.0, SVG Export Plug-In . SVG Version: 6.00 Build 0)  -->
<svg version="1.1" xmlns="http://www.w3.org/2000/svg" xmlns:xlink="http://www.w3.org/1999/xlink" x="0px" y="0px"
	 viewBox="0 0 471.8 471.8" style="enable-background:new 0 0 471.8 471.8;" xml:space="preserve">
<style type="text/css">
	.st0{fill:#28292D;}
</style>
<g id="Capa_1">
</g>
<g id="Layer_1">
	<g>
		<g>
			<path class="st0" d="M124.2,361.2c0,21.9,0,43.7,0,65.6c0,3.9,0.2,7.8-0.4,11.6c-2.8,19.8-15.7,29.9-36.8,25.2
				c-9.9-2.2-15-9.9-17.8-19.2c-1.6-5.4-1.8-11-1.8-16.6c0-46.5,0-93,0-139.5c0-8.6,0-8.6-8.8-8.6c-7.4,0-14.9,0.1-22.3,0
				c-9-0.1-13.7-4.7-13.9-13.3c-0.2-9.8,4.1-14.7,13.6-15c8.2-0.3,16.4-0.1,24.6-0.1c6.3,0,6.6-0.3,6.8-6.5
				c0.2-6.4,1.3-12.6,4.3-18.4c5.9-11.6,15.9-14.6,28-13.8c10.7,0.7,17.3,6.6,21.5,15.9c2.5,5.5,3.2,11.3,3,17.3
				c-0.2,4.8,2.4,5.7,6.4,5.5c6.4-0.2,7.1-0.5,7.2-5.6c0.1-5.5,0.7-10.8,2.6-16c4.8-12.6,12.7-17.3,28.6-17.1
				c11.1,0.2,19.5,6.7,23.3,18c1.7,5,2.5,10.3,2.3,15.6c-0.2,4.4,2.3,5.2,5.8,5.1c3.5-0.1,7.5,0.6,7.5-5c0-3.1,0.3-6.2,0.8-9.3
				c2.5-16.4,12.5-24.6,29.9-24.4c13.7,0.2,23.7,9.9,25.6,25.1c0.3,2.5,0.4,4.9,0.6,7.4c0.5,5.5,7.2,8.6,11.9,5.5
				c1.9-1.3,1.6-3.3,1.5-5.1c-0.1-6.5,0.9-12.7,3.8-18.5c4.6-9.2,11.7-14.5,22.4-14.5c18.9,0,29.5,10,30.5,29.1c0,0.8,0,1.5,0.1,2.3
				c0.1,6.6,4.8,9.5,11.1,6.9c2-0.8,2.1-2.5,2.2-4.2c0.3-3.2,0.3-6.5,0.8-9.7c2.6-16.3,12.5-24.1,29.1-24.5
				c16.1-0.4,24.8,12.5,26.5,25.3c0.4,2.8,0.6,5.6,0.6,8.3c0,3.8,1.8,5.2,5.4,5.1c8.1-0.1,16.1-0.1,24.2,0.1
				c10.7,0.3,16.3,7.6,14,18.2c-1.3,6-6.1,10-12.7,10.1c-7.7,0.1-15.5,0-23.2,0c-7.4,0-7.6,0.2-7.6,7.5c0,45.2,0,90.5,0,135.7
				c0,5.4,0.1,10.9-0.7,16.2c-3.2,19.6-16.4,29.4-37.1,24.2c-11.9-3-17-12.9-18.6-24.3c-1.5-10.8-0.7-21.7-0.7-32.5
				c-0.1-39.7,0-79.3,0-119c0-7.2-4.1-10-11.1-7.6c-2.6,0.9-2.2,3.1-2.2,5c-0.1,13,0,26,0,39.1c0,36,0,71.9,0,107.9
				c0,7.3-1.4,14.2-5.1,20.5c-5.5,9.2-13.9,12.5-24.4,12.3c-10.2-0.2-17.9-4.4-22.8-13.4c-3.3-6-4.5-12.5-4.5-19.3
				c0-47.7,0-95.5,0-143.2c0-1.9,0-3.7-0.1-5.6c0-2.3-1.2-3.4-3.5-3.5c-0.8,0-1.5,0-2.3-0.1c-7.1-0.1-7.4,0.2-7.5,7.2
				c0,17,0,34.1,0,51.1c0,29.9,0,59.8,0,89.7c0,5.7-0.2,11.5-1.9,17c-3.8,12.8-12.7,19.6-25.9,19.8c-13.9,0.2-22.7-6-27-18.9
				c-1.8-5.5-2.2-11.2-2.2-17c0-47.1,0-94.2,0-141.3c0-7-4.6-10-11.1-7.3c-2.2,0.9-2.1,2.9-2.1,4.7c-0.1,7.7-0.1,15.5-0.1,23.2
				c0,40.4,0,80.9,0,121.3c0,6.1-0.5,12.1-2.7,17.8c-4.6,12.1-12.9,17.5-26.7,17.4c-12.3-0.1-20.8-6.1-25.1-17.7
				c-1.9-5.2-2.4-10.5-2.4-16c0-46.8,0-93.6,0-140.4c0-0.9,0-1.9,0-2.8c-0.1-7.4-4.3-10.3-11.3-7.7c-2.7,1-2.3,3.4-2.4,5.5
				c-0.1,13.6,0,27.3,0,40.9C124.1,338,124.1,349.6,124.2,361.2C124.2,361.2,124.2,361.2,124.2,361.2z"/>
			<path class="st0" d="M279.1,122.7c0.1-14.1,4.9-25.5,12.5-35.8c4.5-6.1,8.9-12.3,12.4-19c7.2-13.6,6.9-26.7-2.5-39.2
				c-1.9-2.6-3.8-5.3-5.6-8c-2.9-4.3-2.6-8.5,0.7-11.3c3.2-2.8,8.6-2.8,12-0.1C324.3,21.9,331.2,47,324.1,66
				c-4.2,11.5-11.3,21.3-18.3,31.1c-11.8,16.6-11.7,34.5,0.3,49.9c2.2,2.8,4.8,5.2,7.2,7.8c3.3,3.5,3.8,7.2,1.6,10.5
				c-2.4,3.5-7.2,4.8-11.2,2.9c-1.5-0.7-3-1.7-4.2-2.8c-10-9.1-16.7-20.2-19.5-33.6C279.4,128.5,279,125.1,279.1,122.7z"/>
			<path class="st0" d="M259.8,47.2c-0.1,11.8-3.5,20.7-8,29.3c-4.3,8.1-10.1,15.2-15,22.9c-9.9,15.4-9.5,32,1.3,46.9
				c2,2.7,4.3,5.2,6.7,7.7c4.2,4.4,5,8.7,2,12.2c-3.4,3.9-9.2,3.9-13.7,0.2c-23-19.1-28-49.5-12-74.8c3.2-5.1,6.9-9.9,10.3-14.9
				c3-4.4,5.5-9,7.5-13.8c4.3-10.3,3.9-20.2-2.1-29.8c-2.6-4.2-5.5-8.2-8.3-12.3c-3-4.5-2.7-8.3,0.6-11.3c3.3-3,9.4-3.4,12.3,0.2
				C250.8,21.1,259.7,33.1,259.8,47.2z"/>
			<path class="st0" d="M143.9,121.6c0.1-12.9,4.9-24.2,12.3-34.4c5.4-7.4,10.6-14.8,14.4-23.2c5-11.2,4.5-21.9-2.3-32.2
				c-2.5-3.7-5.1-7.4-7.6-11.1c-2.9-4.4-2.6-8.4,0.8-11.2c3.5-3,9.7-3,12.6,0.7c16.3,20.4,25.3,37,10.5,65.4
				c-3.3,6.3-7.2,12.3-11.5,18c-5.6,7.6-10.2,15.6-11.1,25.2c-1.1,12.7,3.9,23.3,12.2,32.5c1.1,1.3,2.4,2.4,3.6,3.6
				c3.7,3.8,4.2,7.8,1.5,11.2c-2.7,3.3-7.8,4.3-11.8,2c-3.5-2-6.2-5.1-8.8-8.2C149.3,148.7,144.1,136.1,143.9,121.6z"/>
		</g>
	</g>
</g>
</svg>
