<?xml version="1.0" encoding="utf-8"?>
<!-- Generator: Adobe Illustrator 24.1.0, SVG Export Plug-In . SVG Version: 6.00 Build 0)  -->
<svg version="1.1" id="Layer_1" xmlns="http://www.w3.org/2000/svg" xmlns:xlink="http://www.w3.org/1999/xlink" x="0px" y="0px"
	 viewBox="0 0 512 512" style="enable-background:new 0 0 512 512;" xml:space="preserve">
<style type="text/css">
	.st0{fill:#FFFFFF;}
</style>
<g>
	<path class="st0" d="M497,182.6c8.3,0,15-6.7,15-15v-64.3c0-8.3-6.7-15-15-15h-49.3V39.1c0-8.3-6.7-15-15-15h-64.3
		c-8.3,0-15,6.7-15,15v49.3H158.5V39.1c0-8.3-6.7-15-15-15H79.3c-8.3,0-15,6.7-15,15v49.3H15c-8.3,0-15,6.7-15,15v64.3
		c0,8.3,6.7,15,15,15h17.1v275.3H15c-8.3,0-15,6.7-15,15s6.7,15,15,15h482c8.3,0,15-6.7,15-15s-6.7-15-15-15h-17.1V182.6H497z
		 M383.5,54.1h34.3v34.3h-34.3V54.1z M94.3,54.1h34.3v34.3H94.3V54.1z M449.9,457.9H62.1V182.6h387.7V457.9z M30,152.6v-34.3h452
		v34.3H30z"/>
	<path class="st0" d="M175.7,343.3h33.2v65.3c0,6.1,3.7,11.5,9.3,13.9c5.2,2.1,11.7,1.4,16.3-3.3l112.5-112.5
		c4.3-4.3,5.6-10.7,3.3-16.3c-2.3-5.6-7.8-9.3-13.9-9.3h-23.9l21.3-42.6c2.3-4.6,2.1-10.2-0.7-14.6s-7.6-7.1-12.8-7.1h-96.4
		c-5.7,0-10.9,3.2-13.4,8.3l-48.2,96.4c-2.3,4.6-2.1,10.2,0.7,14.6C165.6,340.6,170.5,343.3,175.7,343.3L175.7,343.3z M233.1,246.9
		H296l-21.3,42.6c-2.3,4.6-2.1,10.2,0.7,14.6s7.6,7.1,12.8,7.1h12l-61.3,61.3v-44.1c0-8.3-6.7-15-15-15h-23.9L233.1,246.9z"/>
</g>
</svg>
