<svg id="Layer_1" enable-background="new 0 0 512 512" height="512" viewBox="0 0 512 512" width="512" xmlns="http://www.w3.org/2000/svg"><g><path d="m497 182.633c8.284 0 15-6.716 15-15v-64.267c0-8.284-6.716-15-15-15h-49.267v-49.266c0-8.284-6.716-15-15-15h-64.267c-8.284 0-15 6.716-15 15v49.267h-194.933v-49.267c0-8.284-6.716-15-15-15h-64.266c-8.284 0-15 6.716-15 15v49.267h-49.267c-8.284 0-15 6.716-15 15v64.267c0 8.284 6.716 15 15 15h17.134v275.266h-17.134c-8.284 0-15 6.716-15 15s6.716 15 15 15h482c8.284 0 15-6.716 15-15s-6.716-15-15-15h-17.134v-275.267zm-113.533-128.533h34.267v34.267h-34.267zm-289.2 0h34.267v34.267h-34.267zm355.599 403.8h-387.732v-275.267h387.732zm-419.866-305.267v-34.267h452v34.267z"/><path d="m175.667 343.3h33.199v65.333c0 6.067 3.654 11.537 9.26 13.858 5.19 2.15 11.744 1.352 16.347-3.252l112.467-112.467c4.29-4.29 5.573-10.742 3.252-16.347-2.322-5.605-7.791-9.26-13.858-9.26h-23.929l21.278-42.559c2.325-4.65 2.077-10.172-.656-14.594s-7.562-7.114-12.76-7.114h-96.4c-5.682 0-10.876 3.21-13.416 8.292l-48.199 96.4c-2.325 4.65-2.077 10.172.656 14.594 2.733 4.424 7.561 7.116 12.759 7.116zm57.47-96.4h62.859l-21.278 42.559c-2.325 4.65-2.077 10.172.656 14.594s7.562 7.114 12.76 7.114h11.986l-61.254 61.253v-44.12c0-8.284-6.716-15-15-15h-23.929z"/></g></svg>