<?xml version="1.0" encoding="utf-8"?>
<!-- Generator: Adobe Illustrator 24.1.0, SVG Export Plug-In . SVG Version: 6.00 Build 0)  -->
<svg version="1.1" id="Layer_1" xmlns="http://www.w3.org/2000/svg" xmlns:xlink="http://www.w3.org/1999/xlink" x="0px" y="0px"
	 viewBox="0 0 512 512" style="enable-background:new 0 0 512 512;" xml:space="preserve">
<style type="text/css">
	.st0{fill:#28292D;}
</style>
<g>
	<g>
		<path class="st0" d="M5.9,130.9c3.6-9.4,10.3-13.4,20.5-12.8c9,0.5,18,0.1,28.1,0.1c0-2.8,0-5.2,0-7.6c0-24.3-0.2-48.6,0.1-72.9
			c0.2-17.2,14.2-28.5,30-24.8c10.9,2.5,18.4,12.6,18.5,25.4c0.2,23.8,0,47.7,0,71.5c0,2.5,0,5,0,8c21.3,0,42,0,63.8,0
			c0-2.3,0-4.7,0-7.2c0-23.8-0.1-47.7,0-71.5c0-16.2,9.8-26.9,24.3-26.9c13.6,0,23.8,11.3,23.9,27c0.1,23.6,0,47.2,0,70.8
			c0,2.5,0,5,0,8.3c10.7,0,20.6-0.1,30.5,0c11.7,0.2,18.2,6.4,18.3,18c0.2,22.7,0.7,45.4-0.3,68.1c-2.5,55.4-35.3,99.1-87.3,117.8
			c-0.9,0.3-1.8,0.6-2.6,0.9c-13.1,4.2-13.2,4.2-13.1,18.4c0.1,15.7-0.4,31.5,0.7,47.2c2.3,33.7,27.5,57.6,61.7,59.6
			c30.5,1.8,58.9-20.9,64.7-52.5c2.1-11.1,1.6-22.7,3.7-33.7c11-56.9,56.7-94.6,114.9-95c22.5-0.2,44.9,0.5,67.4-0.1
			c16.2-0.5,27.2,5.4,32.3,21.1c0,3.2,0,6.5,0,9.7c-6.9,16.6-13.4,20.9-31.7,20.9c-22.7,0-45.4-0.2-68,0
			c-31.5,0.3-57.3,20.6-63.5,50.7c-2.3,11-1.7,22.6-3.5,33.7c-10.1,60.8-66.4,105.2-130.8,95.6c-55.2-8.2-95.3-53.3-98.8-109.3
			c-1.2-18.7-0.7-37.5-0.6-56.2c0-5-1.3-6.9-6.4-8.4c-48.9-14.1-80.2-45.6-93.1-95.1c-1.4-5.5-2.4-11.2-3.7-16.7
			C5.9,185.6,5.9,158.3,5.9,130.9z"/>
	</g>
</g>
</svg>
