<?xml version="1.0" encoding="utf-8"?>
<!-- Generator: Adobe Illustrator 24.1.0, SVG Export Plug-In . SVG Version: 6.00 Build 0)  -->
<svg version="1.1" id="Layer_1" xmlns="http://www.w3.org/2000/svg" xmlns:xlink="http://www.w3.org/1999/xlink" x="0px" y="0px"
	 viewBox="0 0 512 512" style="enable-background:new 0 0 512 512;" xml:space="preserve">
<style type="text/css">
	.st0{fill:#FFFFFF;}
</style>
<path class="st0" d="M421.8,200.4L408,186.1V104h8c4.4,0,8-3.6,8-8V72c0-4.4-3.6-8-8-8h-64c-4.4,0-8,3.6-8,8v24c0,4.4,3.6,8,8,8h8
	v32.3L261.8,34.4c-3.1-3.2-8.1-3.3-11.3-0.2c-0.1,0.1-0.1,0.1-0.2,0.2l-216,224c-3.1,3.2-3,8.2,0.2,11.3c3.2,3.1,8.2,3,11.3-0.2
	L88,225.7V464H16c-4.4,0-8,3.6-8,8s3.6,8,8,8h448c4.4,0,8-3.6,8-8s-3.6-8-8-8h-40V225.7l42.2,43.8c3.1,3.2,8.1,3.3,11.3,0.2
	c3.2-3.1,3.3-8.1,0.2-11.3l0,0L421.8,200.4z M360,80h48v8h-48V80z M104,464V209.1L256,51.5l106.2,110.2c3.1,3.2,8.1,3.3,11.3,0.2
	c1.6-1.5,2.4-3.6,2.4-5.8V104h16v85.3c0,2.1,0.8,4.1,2.2,5.6l13.8,14.3V464H104z"/>
<path class="st0" d="M496,464h-8c-4.4,0-8,3.6-8,8s3.6,8,8,8h8c4.4,0,8-3.6,8-8S500.4,464,496,464z"/>
<path class="st0" d="M168,440h-48c-4.4,0-8,3.6-8,8s3.6,8,8,8h48c4.4,0,8-3.6,8-8S172.4,440,168,440z"/>
<path class="st0" d="M200,440h-8c-4.4,0-8,3.6-8,8s3.6,8,8,8h8c4.4,0,8-3.6,8-8S204.4,440,200,440z"/>
<path class="st0" d="M264.4,192.5c-39.5-4.6-75.3,23.6-79.9,63.1c-3,25.7,8,51,28.8,66.3c4.8,3.4,8.3,8.4,10,14.1H216
	c-4.4,0-8,3.6-8,8v24c0,4.4,3.6,8,8,8h8v16c0,4.4,3.6,8,8,8h48c4.4,0,8-3.6,8-8v-16h8c4.4,0,8-3.6,8-8v-24c0-4.4-3.6-8-8-8h-7.2
	c1.5-5.5,4.8-10.4,9.5-13.7c32.2-23.3,39.4-68.3,16.1-100.5C302.5,205.4,284.4,194.8,264.4,192.5L264.4,192.5z M272,384h-32v-8h32
	V384z M288,360h-64v-8h64V360z M288.9,309.4c-8.8,6.3-14.7,15.9-16.4,26.6h-32.9c-1.8-10.8-7.9-20.5-16.8-26.9
	c-24.9-18.3-30.2-53.4-11.9-78.3c11.9-16.2,31.7-24.8,51.7-22.4c25.4,3.1,45.5,22.9,49,48.3C314.3,277,305.6,297.3,288.9,309.4z"/>
<path class="st0" d="M240,240c-4.4,0-8,3.6-8,8v32c0,4.4,3.6,8,8,8s8-3.6,8-8v-32C248,243.6,244.4,240,240,240z"/>
<path class="st0" d="M272,240c-4.4,0-8,3.6-8,8v32c0,4.4,3.6,8,8,8s8-3.6,8-8v-32C280,243.6,276.4,240,272,240z"/>
<path class="st0" d="M256,184c4.4,0,8-3.6,8-8v-8c0-4.4-3.6-8-8-8s-8,3.6-8,8v8C248,180.4,251.6,184,256,184z"/>
<path class="st0" d="M168,248h-8c-4.4,0-8,3.6-8,8s3.6,8,8,8h8c4.4,0,8-3.6,8-8S172.4,248,168,248z"/>
<path class="st0" d="M352,248h-8c-4.4,0-8,3.6-8,8s3.6,8,8,8h8c4.4,0,8-3.6,8-8S356.4,248,352,248z"/>
<path class="st0" d="M194.3,205.7c3.2,3.1,8.2,3,11.3-0.2c3-3.1,3-8,0-11.1l-8-8c-3.2-3.1-8.2-3-11.3,0.2c-3,3.1-3,8,0,11.1
	L194.3,205.7z"/>
<path class="st0" d="M314.3,186.3l-8,8c-3.2,3.1-3.3,8.1-0.2,11.3c3.1,3.2,8.1,3.3,11.3,0.2c0.1-0.1,0.1-0.1,0.2-0.2l8-8
	c3.1-3.2,3-8.2-0.2-11.3C322.4,183.3,317.4,183.3,314.3,186.3z"/>
</svg>
