<svg height="512" viewBox="0 0 64 64" width="512" xmlns="http://www.w3.org/2000/svg"><path d="m52.722 25.048-1.722-1.791v-10.257h1a1 1 0 0 0 1-1v-3a1 1 0 0 0 -1-1h-8a1 1 0 0 0 -1 1v3a1 1 0 0 0 1 1h1v4.042l-12.28-12.736a1 1 0 0 0 -1.44 0l-27 28a1 1 0 0 0 1.44 1.388l5.28-5.476v29.782h-9a1 1 0 0 0 0 2h56a1 1 0 0 0 0-2h-5v-29.782l5.28 5.476a1 1 0 0 0 1.44-1.388zm-7.722-15.048h6v1h-6zm-32 48v-31.858l19-19.702 13.28 13.774a1 1 0 0 0 1.72-.694v-6.52h2v10.66a1 1 0 0 0 .28.694l1.72 1.788v31.858z"/><path d="m62 58h-1a1 1 0 0 0 0 2h1a1 1 0 0 0 0-2z"/><path d="m21 55h-6a1 1 0 0 0 0 2h6a1 1 0 0 0 0-2z"/><path d="m25 55h-1a1 1 0 0 0 0 2h1a1 1 0 0 0 0-2z"/><path d="m33.046 24.059a9 9 0 0 0 -6.392 16.181 3.282 3.282 0 0 1 1.246 1.76h-.9a1 1 0 0 0 -1 1v3a1 1 0 0 0 1 1h1v2a1 1 0 0 0 1 1h6a1 1 0 0 0 1-1v-2h1a1 1 0 0 0 1-1v-3a1 1 0 0 0 -1-1h-.9a3.109 3.109 0 0 1 1.183-1.713 9 9 0 0 0 -4.237-16.228zm.954 23.941h-4v-1h4zm2-3h-8v-1h8zm.107-6.331a5.1 5.1 0 0 0 -2.051 3.331h-4.113a5.19 5.19 0 0 0 -2.1-3.367 7 7 0 0 1 4.978-12.587 7.023 7.023 0 0 1 6.119 6.033 6.95 6.95 0 0 1 -2.833 6.59z"/><path d="m30 30a1 1 0 0 0 -1 1v4a1 1 0 0 0 2 0v-4a1 1 0 0 0 -1-1z"/><path d="m34 30a1 1 0 0 0 -1 1v4a1 1 0 0 0 2 0v-4a1 1 0 0 0 -1-1z"/><path d="m32 23a1 1 0 0 0 1-1v-1a1 1 0 0 0 -2 0v1a1 1 0 0 0 1 1z"/><path d="m21 31h-1a1 1 0 0 0 0 2h1a1 1 0 0 0 0-2z"/><path d="m44 31h-1a1 1 0 0 0 0 2h1a1 1 0 0 0 0-2z"/><path d="m24.293 25.707a1 1 0 0 0 1.414-1.414l-1-1a1 1 0 0 0 -1.414 1.414z"/><path d="m39.293 23.293-1 1a1 1 0 1 0 1.414 1.414l1-1a1 1 0 0 0 -1.414-1.414z"/></svg>