<svg id="Layer_5" enable-background="new 0 0 64 64" height="512" viewBox="0 0 64 64" width="512" xmlns="http://www.w3.org/2000/svg"><path d="m63 31v-2.721l-21-7v-6.279h6v2h-2v2h2v2h2v-2h2v-2h-2v-2.819l3-7.999v-5.182h-42v5.182l3 7.999v2.819h-2v2h2v2h2v-2h2v-2h-2v-2h6v6.28l-21 7v2.72h2v2h-2v2h2v2h-2v2h2v4h6v-4h2v-2h-2v-2h2v-2h-2v-2h13v6.785l-5.047 11.215h-15.953v14h62v-14h-15.953l-5.047-11.215v-6.785h13v2h-2v2h2v2h-2v2h2v4h6v-4h2v-2h-2v-2h2v-2h-2v-2zm-47.609-18.805-1.948-5.195h7.143zm33.218 0-5.195-5.195h7.143zm-14.146 5.805 5.537-2.461v4.922zm4.074 4-6.537 2.905-6.537-2.905 6.537-2.905zm-2.25-7-4.287 1.905-4.287-1.905zm-8.574-2 4.287-1.905 4.287 1.905zm6.75-3 5.537-2.461v4.922zm-2.463-1.095-4.287-1.905h8.574zm-2.463 1.095-5.537 2.461v-4.922zm0 8-5.537 2.461v-4.922zm0 8-5.537 2.461v-4.922zm-1.824 3 4.287-1.905 4.287 1.905zm8.574 2-4.287 1.905-4.287-1.905zm-6.75 3-5.537 2.461v-4.922zm2.463 1.095 4.287 1.905h-8.574zm5.97 3.905-5.97 4.422-5.97-4.422zm-3.507-5 5.537-2.461v4.922zm0-8 5.537-2.461v4.922zm7.537-17.586 4.586 4.586h-4.586zm9-5.414v2h-38v-2zm-33.586 10 4.586-4.586v4.586zm-10.414 28h-2v-2h2zm0-4h-2v-2h2zm0-4h-2v-2h2zm-1.838-4 16.838-5.613v5.613zm18.24 10.543 6.917 5.124-13.834 10.248zm8.598 6.368 14.97 11.089h-29.94zm29 5.089v10h-58v-10h13.054l-3.6 8h39.093l-3.6-8zm-13.485 3.915-13.835-10.248 6.917-5.124zm-5.515-31.528 16.838 5.613h-16.838zm17 17.613h-2v-2h2zm0-4h-2v-2h2zm0-4h-2v-2h2z"/></svg>