<?xml version="1.0" encoding="utf-8"?>
<!-- Generator: Adobe Illustrator 24.1.0, SVG Export Plug-In . SVG Version: 6.00 Build 0)  -->
<svg version="1.1" id="Layer_5" xmlns="http://www.w3.org/2000/svg" xmlns:xlink="http://www.w3.org/1999/xlink" x="0px" y="0px"
	 viewBox="0 0 512 512" style="enable-background:new 0 0 512 512;" xml:space="preserve">
<style type="text/css">
	.st0{fill:#C9C9C9;}
</style>
<path class="st0" d="M504,248v-21.8l-168-56V120h48v16h-16v16h16v16h16v-16h16v-16h-16v-22.6l24-64V8H88v41.5l24,64V136H96v16h16v16
	h16v-16h16v-16h-16v-16h48v50.2l-168,56V248h16v16H8v16h16v16H8v16h16v32h48v-32h16v-16H72v-16h16v-16H72v-16h104v54.3L135.6,392H8
	v112h496V392H376.4L336,302.3V248h104v16h-16v16h16v16h-16v16h16v32h48v-32h16v-16h-16v-16h16v-16h-16v-16H504z M123.1,97.6
	L107.5,56h57.1L123.1,97.6z M388.9,97.6L347.3,56h57.1L388.9,97.6z M275.7,144l44.3-19.7v39.4L275.7,144z M308.3,176L256,199.2
	L203.7,176l52.3-23.2L308.3,176z M290.3,120L256,135.2L221.7,120L290.3,120z M221.7,104L256,88.8l34.3,15.2H221.7z M275.7,80
	L320,60.3v39.4L275.7,80z M256,71.2L221.7,56h68.6L256,71.2z M236.3,80L192,99.7V60.3L236.3,80z M236.3,144L192,163.7v-39.4
	L236.3,144z M236.3,208L192,227.7v-39.4L236.3,208z M221.7,232l34.3-15.2l34.3,15.2H221.7z M290.3,248L256,263.2L221.7,248
	L290.3,248z M236.3,272L192,291.7v-39.4L236.3,272z M256,280.8l34.3,15.2h-68.6L256,280.8z M303.8,312L256,347.4L208.2,312H303.8z
	 M275.7,272l44.3-19.7v39.4L275.7,272z M275.7,208l44.3-19.7v39.4L275.7,208z M336,67.3l36.7,36.7H336V67.3z M408,24v16H104V24H408z
	 M139.3,104L176,67.3V104H139.3z M56,328H40v-16h16V328z M56,296H40v-16h16V296z M56,264H40v-16h16V264z M41.3,232L176,187.1V232
	H41.3z M187.2,316.3l55.3,41l-110.7,82L187.2,316.3z M256,367.3L375.8,456H136.2L256,367.3z M488,408v80H24v-80h104.4l-28.8,64
	h312.7l-28.8-64H488z M380.1,439.3l-110.7-82l55.3-41L380.1,439.3z M336,187.1L470.7,232H336L336,187.1z M472,328h-16v-16h16V328z
	 M472,296h-16v-16h16V296z M472,264h-16v-16h16V264z"/>
</svg>
