<?xml version="1.0" encoding="utf-8"?>
<!-- Generator: Adobe Illustrator 24.1.0, SVG Export Plug-In . SVG Version: 6.00 Build 0)  -->
<svg version="1.1" xmlns="http://www.w3.org/2000/svg" xmlns:xlink="http://www.w3.org/1999/xlink" x="0px" y="0px"
	 viewBox="0 0 811.6 512" style="enable-background:new 0 0 811.6 512;" xml:space="preserve">
<style type="text/css">
	.st0{fill:#28292D;}
</style>
<g id="Layer_5">
</g>
<g id="Layer_1">
	<g>
		<g>
			<path class="st0" d="M628.3,435.4c0-34.6,0-69.1,0-103.9c-23.4,0-46.5,0-69.9,0c0,1.6,0,3.1,0,4.7c0,31.8,0,63.5,0.1,95.3
				c0,3.2-0.7,4.3-4.1,4.3c-32.6-0.1-65.2-0.1-97.8-0.1c-12.9,0-20-7.1-20-20c0-41.7,0-83.4-0.1-125.1c0-3,0.8-5,3.2-7
				c48.2-39.6,96.4-79.4,144.6-119.1c2.1-1.8,4.4-3.4,6.3-5.3c2-1.9,3.4-1.6,5.4,0c16.8,13.9,33.6,27.8,50.5,41.7
				c33.5,27.6,66.9,55.2,100.5,82.8c2.3,1.8,3.2,3.7,3.2,6.7c-0.1,42.1,0,84.1-0.1,126.2c0,11.8-7.3,19.2-19,19.2
				c-33.2,0.1-66.4,0-99.6,0C630.5,435.7,629.6,435.5,628.3,435.4z"/>
			<path class="st0" d="M593.2,133.1c-16,13.4-31.8,26.5-47.5,39.6c-46.2,38.5-92.4,77-138.6,115.6c-6.4,5.4-10.9,4.9-16.2-1.4
				c-4.5-5.3-8.9-10.6-13.4-16c-5.2-6.3-4.9-10.7,1.4-15.9c31.5-26.3,63-52.5,94.5-78.7c31.5-26.2,63-52.4,94.4-78.7
				c6.4-5.4,13.1-10,21.8-10.7c9.6-0.8,18,1.6,25.4,7.7c20.6,17.2,41.2,34.4,61.8,51.6c0.9,0.8,1.8,1.5,3.5,2.8c0-2,0-3.2,0-4.4
				c0-15.2,0-30.4,0-45.7c0-8.7,2.9-11.6,11.6-11.6c15.5,0,30.9,0,46.4,0c8.7,0,11.7,2.9,11.7,11.6c0,34.9,0,69.8-0.1,104.6
				c0,2.5,0.7,4.2,2.6,5.8c17.8,14.6,35.4,29.4,53.1,44.1c1.2,1,2.4,2,3.6,3c3.9,3.7,4.6,8.3,1.2,12.5c-5.3,6.8-10.9,13.4-16.6,19.8
				c-3.9,4.4-8.7,4.3-13.7,0.1c-17.2-14.3-34.4-28.7-51.7-43c-42.4-35.4-84.8-70.8-127.3-106.1C598.7,137.6,596.1,135.4,593.2,133.1
				z"/>
		</g>
	</g>
	<g>
		<g>
			<path class="st0" d="M93,217.2c-17.4,0-34.6,0-52.1,0c0,1,0,1.9,0,2.8c0,6.3,0,12.7,0,19c0,3.3-2.1,5.8-4.9,6.6
				c-2.9,0.8-5.9-0.3-7.4-3c-0.7-1.2-1-2.6-1-4c-0.1-7,0-14.1,0-21.4c-0.9,0-1.7-0.1-2.5-0.1c-3.8,0-7.5,0-11.3,0
				c-3.9,0-6.8-2.8-6.9-6.5c-0.1-3.8,2.8-6.9,6.7-6.9c7.2-0.1,14.4,0,21.6,0c19.1,0,38.1,0,57.2-0.1c0.2,0,0.4-0.1,0.8-0.2
				c0-13,0-26,0-39.2c-8.9,0-17.8,0-27,0c0,5.8,0,11.4,0,17.1c0,1.8,0.1,3.6,0,5.4c-0.3,3.7-3.3,6.4-6.9,6.2
				c-3.5-0.1-6.3-2.8-6.3-6.5c-0.1-6.6-0.1-13.3-0.2-19.9c0-0.7-0.1-1.4-0.1-2.4c-3.3,0-6.5,0.1-9.6,0c-3.2-0.1-5.7-1.8-6.5-4.4
				c-0.9-2.9-0.1-6,2.3-7.5c1.4-0.9,3.2-1.4,4.8-1.4c10.9-0.1,21.9-0.1,32.8-0.1c5.7,0,11.4,0.1,17.1-0.1c0.9,0,2.1-0.7,2.6-1.4
				c3.9-5.9,7.7-11.8,11.3-17.7c10.4-16.8,20.7-33.7,31.1-50.6c0.2-0.4,0.5-0.8,0.7-1.2c3-4.5,7.4-4.6,10.4-0.2
				c2.7,4,5.2,8.2,7.8,12.3c3.7,6,7.4,11.9,11.1,17.9c8,12.9,16,25.7,23.9,38.6c1.1,1.7,2.2,2.4,4.2,2.4c14.8-0.1,29.7-0.1,44.5,0
				c0.9,0,1.7,0,2.6,0.1c4.1,0.5,6.4,3,6.3,6.7c-0.1,4-2.6,6.4-6.8,6.6c-2.6,0.1-5.1,0-8.1,0c0,2.9,0,5.7,0,8.5
				c0,4.3-0.1,8.6,0,12.9c0.1,4.1-2.5,7.3-6.4,7.4c-3.9,0.2-7-2.9-7.1-7.1c-0.1-6.7,0-13.4,0-20.2c0-0.5,0-0.9,0-1.5
				c-8.6,0-17.1,0-25.8,0c0,13.1,0,26.1,0,39.4c1,0,2,0,2.9,0c24.3,0,48.6,0,72.9,0c4.4,0,7.4,2.5,7.6,6.3c0.2,4-2.7,7.1-6.7,7.2
				c-4.1,0.1-8.2,0-12.7,0c0,1-0.1,1.9-0.1,2.8c0,6.4,0,12.8,0,19.2c0,3.1-2.1,5.7-4.9,6.5c-2.7,0.8-5.7-0.2-7.4-2.7
				c-0.7-1.2-1.1-2.8-1.1-4.2c-0.1-6.3-0.1-12.7-0.1-19c0-0.8,0-1.5,0-2.4c-17,0-33.7,0-50.7,0c0,1,0,1.9,0,2.8
				c0,25.6,0.1,51.3-0.1,76.9c-0.1,6.3,1.1,12.1,3.4,17.9c5.6,14.3,10.7,28.8,16.1,43.2c6.1,16.3,12.3,32.5,18.3,48.8
				c1.1,2.9,3.5,4.1,5.6,5.7c9,6.8,16.7,14.9,21.7,25.1c2.3,4.6,3.7,9.5,5.6,14.7c-82.4,0-164,0-245.9,0c0.9-5.3,2.6-10.2,5-14.8
				c6.4-12.4,16.3-21.6,27.8-29.2c1.6-1,2.6-2.3,3.2-4c7.3-19.5,14.7-39,22-58.5c4.8-12.8,9.5-25.6,14.3-38.4
				c0.3-0.9,0.5-1.8,0.5-2.7c0-28.8,0-57.5,0-86.3C93.1,218.1,93.1,217.7,93,217.2z M210.9,396.5c-3.4-9-6.7-17.8-10-26.5
				c-0.3-0.8-1.2-1.6-2.1-2c-2.9-1.5-5.9-2.9-8.8-4.4c-14.8-7.5-29.7-15-44.5-22.5c-1.5-0.8-2.9-0.8-4.4,0.1
				c-3.8,2.3-7.7,4.4-11.6,6.6c-13.6,7.6-27.2,15.2-40.8,22.9c-0.8,0.4-1.5,1.4-1.8,2.2c-1.6,3.9-3,7.9-4.5,11.8
				c-1.3,3.4-2.5,6.8-4,10.6C122.9,380.1,166.8,380.5,210.9,396.5z M110.7,260.2c0,9.1-0.1,18.3,0.1,27.4c0,1.1,0.7,2.6,1.5,3
				c0.8,0.4,2.4,0,3.3-0.6c6.6-4.2,13.1-8.5,19.6-12.7c9.6-6.3,19.2-12.5,28.8-18.8c3.2-2.1,3.1-4.1-0.4-5.8
				c-3.5-1.7-7.1-3.3-10.6-5c-12.5-6-25.1-11.9-37.6-17.9c-3.1-1.5-4.8-0.4-4.8,3.1C110.7,242.1,110.7,251.1,110.7,260.2z
				 M172.9,150.5c-0.5-0.9-0.9-1.7-1.4-2.4c-4.9-8-9.8-15.9-14.7-23.9c-3.1-5-6.2-10.1-9.4-15.1c-2.1-3.2-3.8-3.2-6,0
				c-0.3,0.4-0.5,0.8-0.7,1.2c-6.1,9.9-12.3,19.7-18.4,29.6c-2.1,3.4-4.2,6.9-6.4,10.5C135,150.5,153.8,150.5,172.9,150.5z
				 M178.1,287.1C178.1,287.1,178.1,287.1,178.1,287.1c0-3.8,0-7.7,0-11.5c0-2.6-1.8-3.6-4.1-2.5c-0.9,0.4-1.7,1-2.6,1.6
				c-5.1,3.4-10.3,6.8-15.4,10.2c-10.6,6.9-21.2,13.7-31.8,20.6c-2.9,1.9-2.7,3.9,0.3,5.4c4.4,2.3,9.1,4.2,13.3,6.8
				c3.7,2.3,6.5,1.9,10.2-0.3c8.9-5.4,18.2-10.3,27.4-15.3c2.1-1.1,3-2.6,2.9-5C177.9,293.8,178.1,290.5,178.1,287.1z M110.7,164.1
				c0,5.6,0,11.1,0,16.6c0,3.8-0.1,7.7,0,11.5c0.1,3.1,2.2,4.1,4.7,2.5c1.2-0.7,2.4-1.5,3.6-2.2c12.6-8.1,25.3-16.1,37.9-24.2
				c1.9-1.2,3.8-2.6,6.1-4.1C145.3,164.1,128.2,164.1,110.7,164.1z M178.1,203.5c0-7.6,0.1-14.9-0.1-22.3c0-1.1-0.6-2.6-1.4-3.1
				c-0.8-0.4-2.4-0.1-3.3,0.5c-12.4,7.8-24.7,15.7-37.1,23.6c-0.4,0.3-0.7,0.6-1.4,1.2C149.4,203.5,163.6,203.5,178.1,203.5z
				 M178,217.2c-16.1,0-31.9,0-48.4,0c6.3,3,11.9,5.6,17.6,8.3c8.8,4.2,17.6,8.4,26.4,12.5c2.4,1.1,4.3,0.4,4.3-1.8
				C178.1,229.9,178,223.6,178,217.2z M186.3,341.8c2.2,0,3.3-1.7,2.6-3.6c-1.9-5.4-3.9-10.7-6-16c-1-2.6-2.1-2.9-4.5-1.6
				c-3.8,2-7.5,4.1-11.2,6.3c-1,0.6-2.2,1.9-2.2,2.8c0,1,1.3,2.2,2.3,2.8c5.8,3,11.7,5.9,17.6,8.8
				C185.4,341.5,186,341.7,186.3,341.8z M121.9,330.7c-0.9-1-1.5-2-2.3-2.5c-3.4-1.8-6.8-3.5-10.2-5.2c-2.2-1.1-3.6-0.6-4.4,1.6
				c-1.8,4.7-3.6,9.5-5.2,14.2c-0.3,0.9,0.1,2.4,0.8,3c0.6,0.5,2.1,0.6,2.9,0.2c5.5-2.9,10.8-5.8,16.2-8.9
				C120.4,332.7,121,331.7,121.9,330.7z"/>
		</g>
	</g>
</g>
</svg>
