<?xml version="1.0" encoding="utf-8"?>
<!-- Generator: Adobe Illustrator 24.1.0, SVG Export Plug-In . SVG Version: 6.00 Build 0)  -->
<svg version="1.1" id="Capa_1" xmlns="http://www.w3.org/2000/svg" xmlns:xlink="http://www.w3.org/1999/xlink" x="0px" y="0px"
	 viewBox="0 0 512 512" style="enable-background:new 0 0 512 512;" xml:space="preserve">
<style type="text/css">
	.st0{fill:#FFFFFF;}
</style>
<g>
	<path class="st0" d="M15,466h421c8.3,0,15-6.7,15-15s-6.7-15-15-15h-15v-15c0-8.3-6.7-15-15-15h-45v-30h-30v30h-45
		c-8.3,0-15,6.7-15,15v15h-90v-15c0-8.3-6.7-15-15-15h-45v-30H91v30H45c-8.3,0-15,6.7-15,15v15H15c-8.3,0-15,6.7-15,15
		S6.7,466,15,466z"/>
	<path class="st0" d="M129.5,156h-90l-17.8,80h90L129.5,156z"/>
	<path class="st0" d="M232.5,236l17.8-80h-90l-17.8,80H232.5z"/>
	<path class="st0" d="M270.7,64.3c1-4.4-0.1-9.1-2.9-12.6c-2.9-3.5-7.1-5.6-11.7-5.6h-71.3l-17.8,80h90L270.7,64.3z"/>
	<path class="st0" d="M15,346h72.3l17.8-80h-90L0.4,327.7C-1.7,337.1,5.4,346,15,346z"/>
	<path class="st0" d="M154,46H76c-7,0-13.1,4.9-14.6,11.7L46.2,126h90L154,46z"/>
	<path class="st0" d="M118,346h78c7,0,13.1-4.9,14.6-11.7l15.2-68.3h-90L118,346z"/>
	<path class="st0" d="M351.7,236l17.8-80h-90l-17.8,80H351.7z"/>
	<path class="st0" d="M472.5,236l17.8-80h-90l-17.8,80H472.5z"/>
	<path class="st0" d="M511.6,64.3c1-4.4-0.1-9.1-2.9-12.6c-2.9-3.5-7.1-5.6-11.7-5.6h-72.3l-17.8,80h90L511.6,64.3z"/>
	<path class="st0" d="M241.4,327.7c-2.1,9.3,5,18.3,14.6,18.3h71.3l17.8-80h-90L241.4,327.7z"/>
	<path class="st0" d="M394,46h-78c-7,0-13.1,4.9-14.6,11.7L286.2,126h90L394,46z"/>
	<path class="st0" d="M358,346h78c7,0,13.1-4.9,14.6-11.7l15.2-68.3h-90L358,346z"/>
</g>
</svg>
