<svg xmlns="http://www.w3.org/2000/svg" viewBox="0 0 114.32 115.31"><defs><style>.cls-1{fill:#73b73a;}</style></defs><g id="Layer_2" data-name="Layer 2"><g id="Layer_7" data-name="Layer 7"><path class="cls-1" d="M2.17,73.6C-6.52,43,11.68,10.87,42.62,2.13c30.18-8.52,61.07,9.27,69.61,40.09,8.42,30.37-9.49,62.52-39.51,70.9A56.85,56.85,0,0,1,2.17,73.6Zm79.1-26.31c6,10.9,4.67,22.06-2.28,32.06C68.83,94,54.39,98.89,36.85,96c9.53,7.48,26.08,8,39.75,1.3C95,88.38,104.92,66,98.33,48.47c-6.78-18-29-24.84-45.48-13.49C53.27,35,71.13,29.44,81.27,47.29ZM35.12,19.81C21.75,27.94,13.73,40.06,13.93,56c.27,22,23,35.89,43.19,27.11A21.75,21.75,0,0,0,62.18,80c-21,4-32.25-10.42-32.67-23.94-.61-14.7,6.7-25.2,19.05-32.51,8.58-5.08,18-5.8,27.72-5.19C62.27,11.27,48.33,11.78,35.12,19.81ZM60.05,68.12A10.92,10.92,0,0,0,67.29,54.2a10.5,10.5,0,0,0-12.94-7.06,11.15,11.15,0,0,0-7.62,13.8A10.42,10.42,0,0,0,60.05,68.12Z"/></g></g></svg>